<svg xmlns="http://www.w3.org/2000/svg" xmlns:xlink="http://www.w3.org/1999/xlink" width="42" height="42" viewBox="0 0 42 42"><defs><path id="w3ska" d="M821 219.5v28a2.1 2.1 0 0 1-2.1 2.1h-14.7v4.2h2.8a2.1 2.1 0 0 1 0 4.2h-14a2.1 2.1 0 0 1 0-4.2h2.8v-4.2h-14.7a2.1 2.1 0 0 1-2.1-2.1v-28a3.504 3.504 0 0 1 3.5-3.5h35a3.504 3.504 0 0 1 3.5 3.5zm-40.6 23.1h39.2v-23.1a2.1 2.1 0 0 0-2.1-2.1h-35a2.1 2.1 0 0 0-2.1 2.1zm26.6 12.6h-14a.7.7 0 0 0 0 1.4h14a.7.7 0 0 0 0-1.4zm-4.2-5.6h-5.6v4.2h5.6zm16.8-5.6h-39.2v3.5a.7.7 0 0 0 .7.7h37.8a.7.7 0 0 0 .7-.7zm-1.4-24.5v21a.7.7 0 0 1-.7.7h-35a.7.7 0 0 1-.7-.7v-21a.7.7 0 0 1 .7-.7h35a.7.7 0 0 1 .7.7zm-1.4.7h-33.6v19.6h33.6zM786 231.4c0-.045.005-.09.014-.134l1.4-7a.7.7 0 1 1 1.372.274l-1.386 6.917a.7.7 0 0 0 .7.643h3.5v-7.7a.7.7 0 0 1 1.4 0v7.7h1.4a.7.7 0 1 1 0 1.4H793v2.1a.7.7 0 0 1-1.4 0v-2.1h-3.5a2.1 2.1 0 0 1-2.1-2.1zm9.8 2.8v-8.4c0-1.16.94-2.1 2.1-2.1h4.2c1.16 0 2.1.94 2.1 2.1v8.4a2.1 2.1 0 0 1-2.1 2.1h-4.2a2.1 2.1 0 0 1-2.1-2.1zm1.4 0a.7.7 0 0 0 .7.7h4.2a.7.7 0 0 0 .7-.7v-8.4a.7.7 0 0 0-.7-.7h-4.2a.7.7 0 0 0-.7.7zm8.4-2.8c0-.045.005-.09.014-.134l1.4-7a.7.7 0 0 1 1.372.274L807 231.457a.7.7 0 0 0 .7.643h3.5v-7.7a.7.7 0 0 1 1.4 0v7.7h1.4a.7.7 0 1 1 0 1.4h-1.4v2.1a.7.7 0 0 1-1.4 0v-2.1h-3.5a2.1 2.1 0 0 1-2.1-2.1z"/></defs><g><g transform="translate(-779 -216)"><use xlink:href="#w3ska"/></g></g></svg>