<svg xmlns="http://www.w3.org/2000/svg" xmlns:xlink="http://www.w3.org/1999/xlink" width="49" height="48" viewBox="0 0 49 48"><defs><path id="ewmca" d="M239.718 457.47a.723.723 0 0 1-.718-.729v-27.633c0-2.445 1.958-4.434 4.364-4.434h1.107v-.903c0-.977.782-1.771 1.743-1.771h1.333c.962 0 1.744.794 1.744 1.771v.903h4.76v-.903c0-.977.783-1.771 1.744-1.771h1.333c.962 0 1.744.794 1.744 1.771v.903h4.76v-.903c0-.977.783-1.771 1.744-1.771h1.333c.962 0 1.744.794 1.744 1.771v.903h4.76v-.903c0-.977.782-1.771 1.744-1.771h1.333c.962 0 1.744.794 1.744 1.771v.903h1.882c2.406 0 4.364 1.99 4.364 4.434v14.41c0 .404-.321.73-.718.73a.723.723 0 0 1-.718-.73v-8.014h-42.409v21.238c0 .403-.321.729-.717.729zm34.931-30.156a.31.31 0 0 0 .308.313h1.334a.31.31 0 0 0 .307-.313v-3.543a.31.31 0 0 0-.307-.313h-1.334c-.17 0-.308.14-.308.313zm-9.58 0a.31.31 0 0 0 .307.313h1.333c.17 0 .308-.14.308-.313v-3.543a.311.311 0 0 0-.308-.313h-1.333a.31.31 0 0 0-.308.313zm-9.582 0a.31.31 0 0 0 .308.313h1.334c.17 0 .308-.14.308-.313v-3.543a.311.311 0 0 0-.308-.313h-1.334c-.17 0-.308.14-.308.313zm-9.58 0a.31.31 0 0 0 .307.313h1.334a.31.31 0 0 0 .307-.313v-3.543a.31.31 0 0 0-.307-.313h-1.334c-.17 0-.308.14-.308.313zm-2.543-1.181c-1.615 0-2.928 1.334-2.928 2.975v4.937h42.409v-4.937c0-1.64-1.314-2.975-2.929-2.975h-1.882v1.18c0 .978-.782 1.772-1.743 1.772h-1.334c-.961 0-1.744-.794-1.744-1.771v-1.181h-4.76v1.18c0 .978-.782 1.772-1.743 1.772h-1.334c-.961 0-1.743-.794-1.743-1.771v-1.181h-4.76v1.18c0 .978-.783 1.772-1.744 1.772h-1.334c-.961 0-1.743-.794-1.743-1.771v-1.181h-4.761v1.18c0 .978-.782 1.772-1.743 1.772h-1.334c-.961 0-1.743-.794-1.743-1.771v-1.181zm3.762 38.12c.396 0 .718.325.718.728 0 .403-.322.73-.718.73h-6.259c-1.03 0-1.867-.852-1.867-1.897v-3.75c0-.402.321-.728.718-.728.396 0 .718.326.718.729v3.749c0 .242.193.438.431.438zm-.024-26.623c.397 0 .718.327.718.73 0 .402-.321.728-.718.728h-2.495a.723.723 0 0 1-.718-.729c0-.402.322-.729.718-.729zm5.173 1.458a.723.723 0 0 1-.718-.729c0-.402.321-.729.718-.729h2.495c.396 0 .717.327.717.73 0 .402-.321.728-.717.728zm7.667 0a.723.723 0 0 1-.718-.729c0-.402.322-.729.718-.729h2.495c.396 0 .718.327.718.73 0 .402-.322.728-.718.728zm7.667 0a.723.723 0 0 1-.718-.729c0-.402.322-.729.718-.729h2.495c.396 0 .718.327.718.73 0 .402-.322.728-.718.728zm10.162-1.458c.397 0 .718.327.718.73 0 .402-.321.728-.718.728h-2.494a.723.723 0 0 1-.718-.729c0-.402.321-.729.718-.729zm-30.669 3.667c.397 0 .718.326.718.73a.723.723 0 0 1-.718.728h-2.495a.723.723 0 0 1-.718-.729c0-.403.322-.729.718-.729zm5.173 1.458a.723.723 0 0 1-.718-.729c0-.403.321-.729.718-.729h2.495c.396 0 .717.326.717.73a.723.723 0 0 1-.717.728zm7.667 0a.723.723 0 0 1-.718-.729c0-.403.322-.729.718-.729h2.495c.396 0 .718.326.718.73a.724.724 0 0 1-.718.728zm7.667 0a.723.723 0 0 1-.718-.729c0-.403.322-.729.718-.729h2.495c.396 0 .718.326.718.73a.724.724 0 0 1-.718.728zm10.162-1.458c.397 0 .718.326.718.73a.723.723 0 0 1-.718.728h-2.494a.723.723 0 0 1-.718-.729c0-.403.321-.729.718-.729zm-25.479 15.773a2.908 2.908 0 0 1 0-4.06 2.799 2.799 0 0 1 3.997 0l1.692 1.718 8.108-8.237a2.799 2.799 0 0 1 3.998 0 2.907 2.907 0 0 1 0 4.061L259.98 460.82a2.785 2.785 0 0 1-1.999.84 2.786 2.786 0 0 1-1.998-.84zm1.015-3.03a1.43 1.43 0 0 0 0 1.999l3.69 3.75c.264.266.613.413.984.413.372 0 .721-.147.984-.414l10.106-10.267a1.43 1.43 0 0 0 0-1.999 1.377 1.377 0 0 0-1.967 0l-8.615 8.753a.71.71 0 0 1-1.015 0l-2.2-2.234a1.376 1.376 0 0 0-1.967 0zm30.973-1.38a9.717 9.717 0 0 1 3.72 7.666c0 5.334-4.272 9.674-9.523 9.674-3.29 0-6.196-1.704-7.907-4.29h-20.173a.724.724 0 0 1-.718-.729c0-.403.322-.729.718-.729h19.377a9.756 9.756 0 0 1-.82-3.926c0-5.335 4.272-9.675 9.523-9.675 1.573 0 3.059.39 4.367 1.08v-4.889c0-.403.322-.729.718-.729.397 0 .718.326.718.73zm-5.803 15.881c4.46 0 8.087-3.685 8.087-8.215 0-4.53-3.628-8.216-8.087-8.216-4.46 0-8.087 3.685-8.087 8.216 0 4.53 3.628 8.215 8.087 8.215zm0-15.378c3.887 0 7.05 3.214 7.05 7.163 0 3.949-3.162 7.162-7.05 7.162-3.887 0-7.05-3.213-7.05-7.162 0-3.95 3.163-7.163 7.05-7.163zm.643 12.828c2.583-.3 4.638-2.388 4.934-5.013a.702.702 0 0 1-.318.077h-.875a.723.723 0 0 1-.718-.73c0-.402.322-.729.718-.729h.875c.114 0 .222.028.318.077-.296-2.625-2.351-4.712-4.934-5.013a.736.736 0 0 1 .075.324v.888c0 .403-.322.73-.718.73a.724.724 0 0 1-.718-.73v-.888c0-.117.028-.226.075-.324-2.583.3-4.638 2.388-4.933 5.013a.705.705 0 0 1 .318-.077h.874c.396 0 .718.327.718.73 0 .403-.322.729-.718.729h-.874a.702.702 0 0 1-.318-.077c.295 2.625 2.35 4.712 4.933 5.013a.732.732 0 0 1-.075-.323v-.889c0-.402.322-.729.718-.729.396 0 .718.327.718.73v.888a.736.736 0 0 1-.075.323zm.94-6.395c.395 0 .717.327.717.73 0 .403-.322.729-.718.729h-1.582a.723.723 0 0 1-.718-.73v-1.476c0-.403.322-.73.718-.73.396 0 .718.327.718.73v.747z"/></defs><g><g transform="translate(-239 -422)"><use xlink:href="#ewmca"/></g></g></svg>