<svg xmlns="http://www.w3.org/2000/svg" xmlns:xlink="http://www.w3.org/1999/xlink" width="50" height="50" viewBox="0 0 50 50"><defs><path id="h392a" d="M284.907 794.564a3.72 3.72 0 0 1 1.927 6.37l-8.528 10.172a2.496 2.496 0 0 1-1.917.893H255.5a.877.877 0 0 1-.154-.018L243 809.665v1.5c0 .46-.373.834-.834.834h-3.333a.834.834 0 0 1-.833-.833V794.5c0-.46.373-.834.833-.834h3.333c.46 0 .834.373.834.834v.493a17.132 17.132 0 0 1 9.212.234l6.776 2.605h10.262a3.75 3.75 0 0 1 3.115 5.834h1.521a2.488 2.488 0 0 0 1.962-.948l4.18-5.281a10.767 10.767 0 0 1-12.462-5.438h-22.9a.833.833 0 0 1-.833-.833v-28.333c0-.46.374-.833.834-.833h36.666c.46 0 .834.373.834.833v14.566a10.818 10.818 0 0 1 2.593 1.88c4.262 4.18 4.327 11.023.147 15.285zm-43.574.769h-1.666v15h1.666zM259.667 772h6.666v-8.333h-6.666zm7.196 11.643c1.848-5.684 7.953-8.794 13.637-6.947v-13.03H268v9.167c0 .46-.373.834-.834.834h-8.333a.834.834 0 0 1-.833-.834v-9.166h-12.5v26.666h21.363a10.821 10.821 0 0 1 0-6.69zm10.304 12.523a9.167 9.167 0 1 0 0-18.333A9.167 9.167 0 0 0 268 787a9.177 9.177 0 0 0 9.167 9.167zm8.5 3.579a2.063 2.063 0 0 0-1.394-3.58h-.173a2.057 2.057 0 0 0-1.318.474l-5.628 7.11a4.147 4.147 0 0 1-3.268 1.584h-10.053v-1.667h5.417a2.083 2.083 0 1 0 0-4.167h-10.417a.83.83 0 0 1-.299-.05l-6.921-2.667a15.425 15.425 0 0 0-8.613-.049v11.241l12.577 2.358h20.812c.247 0 .48-.109.639-.297l8.563-10.21a.826.826 0 0 1 .076-.08zm-1.874-15.5c.1.31.01.65-.231.87l-2.794 2.551 1.355 4.074a.832.832 0 0 1-1.244.962l-3.712-2.417-3.713 2.414a.834.834 0 0 1-1.255-.928l1.182-4.105-2.637-2.57a.833.833 0 0 1 .483-1.423l3.579-.433 1.606-3.274a.78.78 0 0 1 .755-.467.833.833 0 0 1 .75.478l1.542 3.263 3.64.432a.832.832 0 0 1 .694.572zm-2.699.866l-2.29-.27a.833.833 0 0 1-.654-.473l-1-2.113-1.043 2.124a.832.832 0 0 1-.648.46l-2.301.279 1.742 1.701a.835.835 0 0 1 .218.826l-.702 2.438 2.298-1.49a.833.833 0 0 1 .908 0l2.167 1.409-.773-2.323a.832.832 0 0 1 .228-.878zM263 782c.46 0 .833.373.833.833v5c0 .46-.373.833-.833.833h-15a.833.833 0 0 1-.833-.834v-5c0-.46.373-.832.833-.832zm-.833 1.666h-13.334v3.333h13.334zm-6.911-13.922a.832.832 0 0 1-.59 1.422h-.833v1.667c0 .46-.373.834-.833.834h-3.333a.833.833 0 0 1-.834-.834v-1.667H248a.833.833 0 0 1-.59-1.422l3.334-3.333a.833.833 0 0 1 1.178 0zm-3.09.589c0-.347.216-.659.542-.78l-1.375-1.375-1.374 1.374a.832.832 0 0 1 .54.781V772h1.668z"/></defs><g><g transform="translate(-238 -762)"><use xlink:href="#h392a"/></g></g></svg>