<svg xmlns="http://www.w3.org/2000/svg" xmlns:xlink="http://www.w3.org/1999/xlink" width="48" height="47" viewBox="0 0 48 47"><defs><path id="nvu5a" d="M286.896 687.074a.936.936 0 0 1 .102.437.918.918 0 0 1-.924.912.86.86 0 0 1-.247 0l-5.085-1.386c-1.023-.277-2.237.758-2.62 2.21a3.435 3.435 0 0 0 .09 2.181 1.7 1.7 0 0 0 1.078 1.063l5.14 1.396c.125.039.24.105.337.192.376.34.41.924.074 1.305a8.29 8.29 0 0 1-7.354 2.423c-4.55-.774-7.618-5.137-6.853-9.744l-8.856-8.967-2.922 3.023.666.675a1.865 1.865 0 0 1 0 2.671l-.913.925a1.81 1.81 0 0 1-2.51.102l-10.812 10.935a1.81 1.81 0 0 1-2.639 0l-3.085-3.124a1.864 1.864 0 0 1 0-2.671l10.801-10.918a1.866 1.866 0 0 1 .1-2.542l.914-.925a1.891 1.891 0 0 1 2.638 0l.667.666 2.94-2.977-6.793-6.878a8.26 8.26 0 0 1-2.762.665c-4.605.293-8.573-3.25-8.861-7.912a.929.929 0 0 1 .11-.505.907.907 0 0 1 1.24-.364l3.845 2.108c.922.517 2.337-.167 3.077-1.498.74-1.331.557-2.903-.356-3.43l-4.145-2.338a.932.932 0 0 1-.064-1.572 8.273 8.273 0 0 1 6.051-1.296c4.547.794 7.597 5.17 6.813 9.773l7.47 7.562 10.883-11 .073-2.608a.925.925 0 0 1 .447-.767l6.219-3.744a.904.904 0 0 1 1.113.139l3.196 3.235c.296.3.352.765.137 1.128l-3.698 6.296a.911.911 0 0 1-.758.452l-2.584.074-10.91 10.964 8.217 8.32a8.32 8.32 0 0 1 3.296-.684 8.247 8.247 0 0 1 5.907 2.477 8.472 8.472 0 0 1 2.11 3.54zm-22.361-16.52l1.57 1.59 11.14-11.268a.907.907 0 0 1 .62-.268l2.484-.093 3.013-5.232-2.191-2.22-5.178 3.117-.073 2.468a.928.928 0 0 1-.264.628zm-9.752 14.607l-1.497-1.572-1.57-1.59-10.857 10.964 3.132 3.152zm3.452-1.054l-5.479-5.621-.913.925 3.835 3.91.466.471 1.205 1.23zm2.227-6.277l-1.57-1.59-2.94 2.977 1.57 1.59zm24.032 8.329a6.505 6.505 0 0 0-5.624-3.254 6.5 6.5 0 0 0-3.059.767.905.905 0 0 1-1.068-.166l-20.626-20.874a.932.932 0 0 1-.247-.86 6.688 6.688 0 0 0-.21-3.717c-1.214-3.438-4.95-5.23-8.345-4.002l2.657 1.526c1.826 1.035 2.31 3.707 1.068 5.953a4.764 4.764 0 0 1-3.972 2.625 3.196 3.196 0 0 1-1.588-.416l-2.083-1.174c.936 2.615 3.39 4.357 6.137 4.354a6.487 6.487 0 0 0 3.058-.767.905.905 0 0 1 1.077.13l20.581 20.855a.93.93 0 0 1 .246.86 6.683 6.683 0 0 0 .747 4.897c1.846 3.136 5.853 4.163 8.95 2.294l-3.396-.924a3.495 3.495 0 0 1-2.292-2.126 5.303 5.303 0 0 1-.173-3.375c.393-1.982 2.035-3.46 4.026-3.623.28 0 .56.037.831.11z"/></defs><g><g transform="translate(-239 -651)"><use xlink:href="#nvu5a"/></g></g></svg>