<svg xmlns="http://www.w3.org/2000/svg" xmlns:xlink="http://www.w3.org/1999/xlink" width="43" height="55" viewBox="0 0 43 55"><defs><path id="7tiua" d="M250.348 545.296a1.074 1.074 0 0 1-.682-1.357 14.545 14.545 0 0 1 13.834-10.001c8.033 0 14.568 6.54 14.568 14.581 0 6.014-2.72 9.645-4.705 12.296-1.203 1.607-2.154 2.876-2.154 4.098 0 .515-.022 1.017-.064 1.496v9.086c0 .029-.002.057-.004.085l-.001.02c-.004.04-.01.08-.018.118a8.05 8.05 0 0 1-2.688 4.48A7.703 7.703 0 0 1 263.5 582a7.701 7.701 0 0 1-4.934-1.801 8.051 8.051 0 0 1-2.688-4.48v-.001a1.037 1.037 0 0 1-.018-.117l-.001-.02a1.126 1.126 0 0 1-.004-.086v-9.086c-.043-.48-.065-.981-.065-1.496 0-1.222-.95-2.491-2.153-4.098-1.447-1.931-3.246-4.334-4.141-7.76a1.074 1.074 0 1 1 2.076-.543c.789 3.017 2.379 5.141 3.782 7.014 1.386 1.851 2.583 3.449 2.583 5.387 0 .128.002.254.005.38h4.485v-2.468a1.074 1.074 0 1 1 2.146 0v2.468h4.485c.003-.126.004-.252.004-.38 0-1.938 1.197-3.536 2.583-5.386 1.905-2.544 4.277-5.71 4.277-11.008 0-6.856-5.573-12.433-12.422-12.433a12.402 12.402 0 0 0-11.796 8.527c-.186.564-.793.87-1.356.683zm13.152 34.556c2.182 0 4.15-1.322 5.082-3.283h-10.164c.932 1.961 2.9 3.283 5.082 3.283zm5.499-7.847H258v2.415H269zm0-4.564H258v2.416H269zm-5.5-35.43a1.074 1.074 0 0 1-1.072-1.075v-2.862a1.074 1.074 0 1 1 2.146 0v2.862c0 .594-.48 1.075-1.073 1.075zm-20.426 17.582a1.074 1.074 0 0 1 0-2.148h2.86a1.074 1.074 0 0 1 0 2.148zm25.34 1.096c0 .594-.48 1.075-1.072 1.075h-2.768v2.467a1.074 1.074 0 1 1-2.146 0v-2.467h-2.768a1.074 1.074 0 0 1 0-2.149h7.682c.592 0 1.073.481 1.073 1.074zm-20.116-15.867a1.073 1.073 0 1 1 1.518-1.519l2.022 2.024a1.075 1.075 0 0 1-1.518 1.519zm.019 29.969a1.075 1.075 0 0 1-.76-1.834l2.023-2.024a1.075 1.075 0 0 1 1.518 1.519l-2.022 2.024a1.07 1.07 0 0 1-.76.315zm27.606-27.63a1.075 1.075 0 0 1-.759-1.834l2.022-2.024a1.073 1.073 0 1 1 1.517 1.519l-2.022 2.024a1.07 1.07 0 0 1-.758.314zm-.019 23.772a1.072 1.072 0 0 1 1.518 0l2.022 2.024a1.075 1.075 0 0 1-1.518 1.52l-2.022-2.025c-.42-.42-.42-1.1 0-1.519zm5.164-11.34a1.074 1.074 0 0 1 0-2.148h2.86a1.074 1.074 0 0 1 0 2.148zm-17.567 7.861c.591 0 1.073.483 1.073 1.074 0 .592-.482 1.074-1.073 1.074a1.076 1.076 0 0 1-1.073-1.074c0-.591.482-1.074 1.073-1.074zm-12.422-8.935c0 .592-.482 1.074-1.073 1.074a1.076 1.076 0 0 1-1.073-1.074c0-.592.481-1.074 1.073-1.074.591 0 1.073.482 1.073 1.074z"/></defs><g><g transform="translate(-242 -527)"><use xlink:href="#7tiua"/></g></g></svg>