<svg xmlns="http://www.w3.org/2000/svg" xmlns:xlink="http://www.w3.org/1999/xlink" width="49" height="49" viewBox="0 0 49 49"><defs><path id="hl7va" d="M288 322.062v34.709a3.063 3.063 0 0 1-3.063 3.062h-2.041v-2.041h2.041a1.02 1.02 0 0 0 1.021-1.021v-34.709a1.02 1.02 0 0 0-1.02-1.02h-42.876a1.02 1.02 0 0 0-1.02 1.02v34.709c0 .563.457 1.02 1.02 1.02h24.5v2.042h-24.5a3.063 3.063 0 0 1-3.062-3.062v-34.709a3.063 3.063 0 0 1 3.062-3.062h42.875a3.063 3.063 0 0 1 3.063 3.062zm-5.104 8.167v9.188h-2.042v-8.252a6.142 6.142 0 0 1-5.02-5.02h-24.669a6.142 6.142 0 0 1-5.02 5.02v16.503a6.142 6.142 0 0 1 5.02 5.02H263.5v2.041h-13.27a1.02 1.02 0 0 1-1.022-1.02 4.083 4.083 0 0 0-4.083-4.084 1.02 1.02 0 0 1-1.02-1.021v-18.375c0-.564.456-1.02 1.02-1.02a4.083 4.083 0 0 0 4.083-4.084c0-.564.457-1.021 1.021-1.021h26.542c.563 0 1.02.457 1.02 1.02a4.083 4.083 0 0 0 4.084 4.084c.564 0 1.02.457 1.02 1.021zm1.02 19.396a9.176 9.176 0 0 1-3.062 6.842v10.512a1.021 1.021 0 0 1-1.659.797l-4.466-3.573-4.466 3.573a1.02 1.02 0 0 1-1.659-.797v-10.506a9.188 9.188 0 1 1 15.312-6.848zm-9.187 9.187a9.15 9.15 0 0 1-4.083-.955v6.998l3.445-2.757a1.021 1.021 0 0 1 1.276 0l3.445 2.757v-7.002a9.162 9.162 0 0 1-4.083.96zm7.146-9.187a7.154 7.154 0 0 0-7.146-7.146 7.146 7.146 0 1 0 7.146 7.146zm-7.146-19.396v4.083a1.02 1.02 0 0 1-1.02 1.021h-20.417a1.02 1.02 0 0 1-1.021-1.02v-4.084c0-.564.457-1.02 1.02-1.02h20.417c.564 0 1.021.456 1.021 1.02zm-2.042 1.02h-18.375v2.043h18.375zm-21.437 7.147h2.042v2.041h-2.042zm4.083 0h2.042v2.041h-2.042zm-4.083 4.083h12.25v2.042h-12.25zm28.583 7.146a5.11 5.11 0 0 1-5.104 5.104 5.104 5.104 0 1 1 5.104-5.104zm-2.041 0a3.063 3.063 0 1 0-6.125 0 3.063 3.063 0 0 0 6.125 0zm-33.688 3.062h2.042v2.042h-2.042zm36.75-28.583h2.042v2.042h-2.042zm-36.75 0h2.042v2.042h-2.042z"/></defs><g><g transform="translate(-239 -319)"><use xlink:href="#hl7va"/></g></g></svg>