<svg xmlns="http://www.w3.org/2000/svg" xmlns:xlink="http://www.w3.org/1999/xlink" width="39" height="33" viewBox="0 0 39 33"><defs><path id="blmma" d="M1168.252 1162.258a2.749 2.749 0 0 1 2.748 2.744v13.148a2.749 2.749 0 0 1-2.748 2.744h-7.28v7.95c0 .456-.37.827-.827.827h-17.29a.827.827 0 0 1-.827-.827v-7.95h-7.28a2.748 2.748 0 0 1-2.748-2.744v-13.148a2.748 2.748 0 0 1 2.747-2.743h7.281v-4.104c0-.456.37-.826.827-.826h17.29c.456 0 .827.37.827.826v4.103zm-7.28 3.963h1.972v-2.311h-1.973zm-17.29 0h15.636v-7.24h-15.636zm-3.627 0h1.973v-2.311h-1.973zm19.263 10.92h-15.636v10.878h15.636zm10.028-12.139c0-.602-.49-1.092-1.094-1.092h-3.654v3.137c0 .456-.37.826-.827.826h-24.543a.827.827 0 0 1-.827-.826v-3.137h-3.654c-.603 0-1.093.49-1.093 1.092v13.148c0 .602.49 1.092 1.093 1.092h7.281v-2.1h-1.509a.826.826 0 1 1 0-1.652h21.961a.826.826 0 1 1 0 1.652h-1.508v2.1h7.28c.603 0 1.094-.49 1.094-1.092zm-32.105 6.737a1.036 1.036 0 1 1-.002-2.071 1.036 1.036 0 0 1 .002 2.071zm14.019 11.684a.827.827 0 1 1 0 1.652h-3.86a.826.826 0 1 1 0-1.652zm4.34-4.181a.827.827 0 1 1 0 1.652h-8.2a.827.827 0 1 1 0-1.652z"/></defs><g><g transform="translate(-1132 -1157)"><use fill="#05050a" xlink:href="#blmma"/></g></g></svg>