<svg xmlns="http://www.w3.org/2000/svg" xmlns:xlink="http://www.w3.org/1999/xlink" width="39" height="39" viewBox="0 0 39 39"><defs><path id="mpeda" d="M1200.634 2864.16a2.374 2.374 0 0 1 2.366 2.375 2.36 2.36 0 0 1-.693 1.68l-6.724 6.755v12.16a1.861 1.861 0 0 1-1.854 1.861h-27.195a1.861 1.861 0 0 1-1.854-1.862v-34.764c0-1.027.832-1.863 1.854-1.863h27.195c1.022 0 1.854.836 1.854 1.863v1.193a5.033 5.033 0 0 0 .618-2.435h1.237c0 3.016 1.94 4.966 4.944 4.966v1.242c-2.73 0-4.944 3.38-4.944 5.587h-1.237c0-.852-.224-1.736-.618-2.543v7.873l3.377-3.393a2.346 2.346 0 0 1 1.674-.696zm-3.86-10.194a6.076 6.076 0 0 1-2.913 2.807c1.315.717 2.402 1.942 3.02 3.411.616-1.314 1.621-2.57 2.888-3.335a5.493 5.493 0 0 1-2.995-2.883zm-2.427 22.246l-6.446 6.474-5.856 2.522 2.51-5.883.084-.085.181-.181h-3.452v-4.346h4.326v3.467l8.653-8.69v-10.827c-.834-.804-1.897-1.332-3.09-1.332v-1.242c1.18 0 2.249-.398 3.09-1.066v-2.658a.62.62 0 0 0-.618-.621h-27.195a.62.62 0 0 0-.618.62v34.765c0 .342.278.62.618.62h27.195a.62.62 0 0 0 .618-.62zm-9.062 4.555l-.886 2.075 2.066-.889zm-2.681-4.812v1.862h1.854v-1.862zm15.813-5.587l-1.597-1.606-10.87 10.917 1.598 1.606zm3.016-3.03c.21-.211.33-.502.33-.802 0-.626-.506-1.135-1.13-1.135-.301 0-.585.118-.798.333l-2.142 2.15 1.598 1.606zm-28.718-5.041c-2.046 0-3.708-1.67-3.708-3.725 0-2.054 1.662-3.724 3.708-3.724 2.045 0 3.708 1.67 3.708 3.724 0 2.055-1.663 3.725-3.708 3.725zm0-6.208a2.48 2.48 0 0 0-2.473 2.483 2.48 2.48 0 0 0 2.473 2.484 2.48 2.48 0 0 0 2.472-2.484 2.48 2.48 0 0 0-2.472-2.483zm-3.09 7.45h4.944v1.242h-4.944zm4.944 9.311h-4.327v-4.345h4.327zm-1.236-3.103h-1.854v1.862h1.854zm-3.09 4.966h4.326v4.346h-4.327zm1.236 3.104h1.854v-1.862h-1.854zm14.215-4.966h-4.327v-4.346h4.327zm-1.236-3.104h-1.854v1.862h1.854zm-3.709-13.037h8.654v1.242h-8.654zm0 3.725h11.126v1.241h-11.126zm0 3.724h11.126v1.242h-11.126zm-4.944 4.967h3.09v1.242h-3.09zm0 2.483h3.09v1.242h-3.09zm11.126-2.483h3.09v1.242h-3.09zm0 2.483h3.09v1.242h-3.09zm-11.126 4.966h3.09v1.242h-3.09zm-5.563 4.967h11.125v1.24h-11.125zm0 2.483h11.125v1.241h-11.125zm5.563-20.486h1.236v1.242h-1.236zm16.07 21.727h1.236v1.242h-1.236zm-2.472 0h1.236v1.242h-1.236zm-22.251 0h1.237v1.242h-1.237z"/></defs><g><g transform="translate(-1164 -2850)"><use xlink:href="#mpeda"/></g></g></svg>