<svg xmlns="http://www.w3.org/2000/svg" xmlns:xlink="http://www.w3.org/1999/xlink" width="31" height="39" viewBox="0 0 31 39"><defs><path id="d6apa" d="M816.592 1169.377a.769.769 0 0 1 .223.538.764.764 0 0 1-1.298.54.77.77 0 0 1-.223-.54c0-.2.081-.397.222-.538a.767.767 0 0 1 .538-.224c.2 0 .396.082.538.224zm-.538-2.534c-.42 0-.76-.34-.76-.762v-11.273a2.286 2.286 0 0 0-2.282-2.285h-23.12a2.286 2.286 0 0 0-2.28 2.285v27.117a2.286 2.286 0 0 0 2.28 2.285h23.12a2.286 2.286 0 0 0 2.282-2.285v-8.76a.761.761 0 1 1 1.52 0v8.76a3.81 3.81 0 0 1-3.802 3.809h-4.721v3.504c0 .42-.34.762-.76.762h-12.169a.761.761 0 0 1-.76-.762v-3.504h-4.71a3.81 3.81 0 0 1-3.802-3.809v-27.117a3.81 3.81 0 0 1 3.803-3.809h23.119a3.81 3.81 0 0 1 3.803 3.81v11.272c0 .421-.341.762-.761.762zm-19.931 21.633h10.647v-2.742h-10.647zm8.788-24.527a3.62 3.62 0 0 1 3.614 3.62v1.596a3.621 3.621 0 0 1-3.614 3.62h-2.06a.761.761 0 0 1-.76-.762v-7.313c0-.42.34-.761.76-.761zm2.093 3.62c0-1.156-.94-2.097-2.093-2.097h-1.3v5.79h1.3c1.154 0 2.093-.942 2.093-2.097zm-6.236 4.211a.762.762 0 0 1-1.441.486l-.534-1.589h-2.404l-.534 1.589a.76.76 0 1 1-1.441-.486l.702-2.09v-.003l1.754-5.22a.76.76 0 0 1 1.442 0zm-2.487-2.626l-.69-2.055-.69 2.055zm14.424-14.803c.42 0 .76.341.76.762v26.508c0 .42-.34.761-.76.761h-22.511a.761.761 0 0 1-.76-.761v-26.508c0-.42.34-.762.76-.762zm-10.661 26.508l9.9-9.917v-15.067h-10.563l-4.188 4.194a.758.758 0 0 1-1.076 0 .763.763 0 0 1 0-1.077l3.113-3.117h-8.276v24.984zm9.9-7.762l-7.75 7.762h7.75zm-17.106-11.747a.77.77 0 0 1 .223.54.763.763 0 0 1-1.298.539.765.765 0 0 1 0-1.079.764.764 0 0 1 1.075 0z"/></defs><g><g transform="translate(-786 -1151)"><use fill="#05050a" xlink:href="#d6apa"/></g></g></svg>