<svg xmlns="http://www.w3.org/2000/svg" xmlns:xlink="http://www.w3.org/1999/xlink" width="39" height="39" viewBox="0 0 39 39"><defs><path id="9d0xa" d="M816.478 2874.8a.743.743 0 0 1-.739.743h-1.963a14.625 14.625 0 0 1-1.558 3.78l1.391 1.398a.744.744 0 0 1 0 1.049l-4.154 4.178a.738.738 0 0 1-1.044 0l-1.395-1.4a14.465 14.465 0 0 1-3.763 1.565v1.982a.74.74 0 0 1-.738.742l-5.88.002a.737.737 0 0 1-.738-.742v-1.984a14.48 14.48 0 0 1-3.764-1.565l-1.399 1.405a.736.736 0 0 1-1.044 0l-4.157-4.176a.744.744 0 0 1 0-1.049l1.399-1.405a14.64 14.64 0 0 1-1.558-3.78h-1.976a.736.736 0 0 1-.738-.743l.002-5.904c0-.41.33-.742.738-.742h1.974c.34-1.331.863-2.598 1.558-3.78l-1.394-1.4a.744.744 0 0 1 0-1.05l1.672-1.68a.736.736 0 0 1 1.045 0c.288.29.288.76 0 1.05l-1.15 1.155 1.284 1.29a.744.744 0 0 1 .098.928 13.165 13.165 0 0 0-1.807 4.385.739.739 0 0 1-.722.586h-1.82l-.001 4.421h1.82c.349 0 .65.244.723.586a13.166 13.166 0 0 0 1.807 4.385.744.744 0 0 1-.098.927l-1.29 1.296 3.113 3.127 1.29-1.296a.736.736 0 0 1 .923-.098 13.045 13.045 0 0 0 4.365 1.815c.34.074.583.376.583.725v1.83l4.403-.002v-1.828c0-.35.243-.651.583-.725a13.039 13.039 0 0 0 4.365-1.815.736.736 0 0 1 .923.098l1.285 1.29 3.11-3.128-1.282-1.289a.744.744 0 0 1-.098-.927 13.168 13.168 0 0 0 1.807-4.385.738.738 0 0 1 .722-.586h1.81l-.002-4.421h-1.808a.738.738 0 0 1-.722-.586 13.165 13.165 0 0 0-1.807-4.385.745.745 0 0 1 .098-.927l1.278-1.284-1.567-1.574a.744.744 0 0 1 0-1.05.737.737 0 0 1 1.044 0l2.09 2.1c.288.29.288.759 0 1.048l-1.387 1.394a14.628 14.628 0 0 1 1.558 3.78h1.961a.74.74 0 0 1 .738.742zm-9.48-10.379a.744.744 0 0 1-.525 1.265.734.734 0 0 1-.524-.22l-.008-.008a.744.744 0 0 1-.004-1.049.736.736 0 0 1 1.044-.004zm10.736-10.59a.74.74 0 0 1 .738.741v2.967a.74.74 0 0 1-.738.742h-9.157v.445a.74.74 0 0 1-.213.52l-.003.004-5.186 5.21a.736.736 0 0 1-.394.205v2.812c0 .26-.137.503-.36.637l-2.114 1.269v2.843c0 .573.463 1.039 1.033 1.039h1.773a2.519 2.519 0 0 1 2.51 2.521 2.519 2.519 0 0 1-2.51 2.522h-4.578c-.57 0-1.034.466-1.034 1.038v1.319c.67.158 1.362.239 2.068.239a8.93 8.93 0 0 0 6.37-2.65 9.093 9.093 0 0 0 1.447-10.901.744.744 0 0 1 .273-1.013.736.736 0 0 1 1.008.274 10.584 10.584 0 0 1-1.684 12.688 10.394 10.394 0 0 1-7.414 3.085c-2.801 0-5.434-1.095-7.415-3.085a10.486 10.486 0 0 1-3.071-7.447c0-2.814 1.09-5.458 3.071-7.448a.736.736 0 0 1 1.044 0c.289.29.289.76 0 1.049a9.012 9.012 0 0 0-2.638 6.399 9.01 9.01 0 0 0 2.638 6.399 8.991 8.991 0 0 0 2.827 1.925v-.833a2.519 2.519 0 0 1 2.51-2.521h4.578c.57 0 1.034-.466 1.034-1.039 0-.572-.464-1.038-1.034-1.038h-1.773a2.519 2.519 0 0 1-2.51-2.521v-2.844l-2.114-1.269a.743.743 0 0 1-.36-.637v-2.811a.738.738 0 0 1-.393-.206l-5.183-5.206a.741.741 0 0 1-.22-.528v-.445h-9.158a.74.74 0 0 1-.738-.742v-2.967c0-.41.33-.741.738-.741h9.157v-2.226c0-.41.331-.741.739-.741h16.54a.74.74 0 0 1 .74.741v2.226zm-27.175 1.483h-8.418v1.484h8.418zm10.745 9.363h-3.47v2.38l1.735 1.041 1.735-1.042zm4.752-5.21h-12.975l3.71 3.727h5.556zm1.044-7.12h-15.064v2.077h8.579a.74.74 0 0 1 .738.742.74.74 0 0 1-.738.741h-8.579v2.077H807.1zm9.896 2.967h-8.419v1.484h8.419zm-13.242-.89a.74.74 0 0 1 .739.742.74.74 0 0 1-.739.741h-.01a.74.74 0 0 1-.739-.741c0-.41.33-.742.739-.742z"/></defs><g><g transform="translate(-780 -2850)"><use xlink:href="#9d0xa"/></g></g></svg>