<svg xmlns="http://www.w3.org/2000/svg" xmlns:xlink="http://www.w3.org/1999/xlink" width="51" height="26" viewBox="0 0 51 26"><defs><path id="ybo2a" d="M955.563 1411.167c2.564 0 4.71 1.864 5.205 4.333h21.463c.494-2.469 2.641-4.333 5.206-4.333 2.52 0 4.636 1.799 5.178 4.203 1.227-.35 2.26-1.408 2.26-3.12 0-2.178-1.133-5.417-4.25-5.417h-1.796a4.981 4.981 0 0 1-3.143-1.126l-8.372-6.828a3.168 3.168 0 0 0-1.994-.713h-15.359a3.17 3.17 0 0 0-2.652 1.448l-1.808 2.766a4.998 4.998 0 0 1-4.188 2.287c-1.758 0-3.188 1.458-3.188 3.25v4.332c0 1.464.954 2.705 2.262 3.11.545-2.398 2.66-4.192 5.176-4.192zm0 10.833c-2.597 0-4.765-1.911-5.224-4.425-2.465-.468-4.339-2.678-4.339-5.326v-4.333c0-2.985 2.384-5.416 5.313-5.416.973 0 1.878-.494 2.42-1.32l1.808-2.768a5.276 5.276 0 0 1 4.42-2.413h15.36c1.2 0 2.38.423 3.319 1.188l8.372 6.83c.514.42 1.158.65 1.815.65h1.797c4.142 0 6.376 3.906 6.376 7.582 0 2.748-1.81 4.895-4.342 5.335-.461 2.51-2.628 4.416-5.22 4.416-2.565 0-4.713-1.865-5.207-4.334h-21.463c-.494 2.469-2.641 4.334-5.205 4.334zm0-2.167c1.757 0 3.187-1.458 3.187-3.25s-1.43-3.25-3.187-3.25c-1.758 0-3.188 1.458-3.188 3.25s1.43 3.25 3.188 3.25zm31.874 0c1.757 0 3.187-1.458 3.187-3.25s-1.43-3.25-3.187-3.25-3.187 1.458-3.187 3.25 1.43 3.25 3.187 3.25zm-6.375-15.166c.587 0 1.063.485 1.063 1.083s-.476 1.083-1.063 1.083h-10.625a1.073 1.073 0 0 1-1.062-1.083v-4.334c0-.598.476-1.083 1.062-1.083.587 0 1.063.485 1.063 1.083v3.25zm-14.875 0c.587 0 1.063.485 1.063 1.083s-.476 1.083-1.063 1.083h-8.5c-.367 0-.71-.195-.903-.513a1.097 1.097 0 0 1-.046-1.053l2.125-4.334a1.053 1.053 0 0 1 1.426-.485c.524.269.737.919.475 1.454l-1.358 2.765zm8.5 4.333c.587 0 1.063.485 1.063 1.083s-.476 1.084-1.063 1.084h-2.125a1.074 1.074 0 0 1-1.062-1.084c0-.598.476-1.083 1.062-1.083z"/></defs><g><g transform="translate(-946 -1396)"><use fill="#05050a" xlink:href="#ybo2a"/></g></g></svg>