<svg xmlns="http://www.w3.org/2000/svg" xmlns:xlink="http://www.w3.org/1999/xlink" width="41" height="41" viewBox="0 0 41 41"><defs><path id="vp7ha" d="M412.969 2859.53a2.57 2.57 0 0 1 0 5.14 2.57 2.57 0 0 1 0-5.14zm0 3.905a1.336 1.336 0 0 0 0-2.67 1.336 1.336 0 0 0 0 2.67zm1.51-12.578c.34 0 .616.277.616.617v3.025a.617.617 0 0 1-.616.617h-3.02a.616.616 0 0 1-.616-.617v-3.025c0-.34.276-.617.616-.617zm-.616 1.235h-1.788v1.79h1.788zm13.728 2.854a20.183 20.183 0 0 1 5.935 14.355c0 4.478-1.39 8.713-4.02 12.247-2.502 3.363-5.902 5.802-9.856 7.078l.117.695a.617.617 0 0 1-1.215.206l-.258-1.53a.627.627 0 0 1-.114-.254l-1.874-9.5h-1.44v.869a.616.616 0 0 1-.616.617h-2.037a.616.616 0 0 1-.616-.617v-.88h-1.438l-1.874 9.504-.073.428a.604.604 0 0 1-.025.19l-.012.031-.192 1.142a.617.617 0 1 1-1.215-.206l.121-.718a20.253 20.253 0 0 1-9.825-7.048c-2.66-3.543-4.067-7.78-4.067-12.254 0-7.164 4.498-14.836 10.463-17.846a.617.617 0 0 1 .554 1.103c-5.578 2.814-9.785 10.013-9.785 16.743 0 7.792 4.536 14.594 11.487 17.547a4.724 4.724 0 0 1-.943-3.874l.932-4.753h-6.993a.617.617 0 0 1-.616-.617v-2.374c0-.341.276-.617.616-.617h2.365a.617.617 0 0 1 0 1.234h-1.75v1.14h6.62l.223-1.14h-2.433a.617.617 0 0 1 0-1.234h2.675l1.585-8.088a6.646 6.646 0 0 1-1.683-4.425c0-3.676 2.985-6.667 6.655-6.667 3.67 0 6.655 2.99 6.655 6.667a6.64 6.64 0 0 1-1.3 3.952l.666 3.348a.617.617 0 1 1-1.208.241l-.492-2.477a6.658 6.658 0 0 1-1.702 1.064l3.63 18.41a3.491 3.491 0 0 0 1.263-3.425l-2.23-11.211a.617.617 0 1 1 1.209-.242l.567 2.853h7.785c.34 0 .616.276.616.617v2.374c0 .34-.276.617-.616.617h-7.067l.945 4.752a4.726 4.726 0 0 1-1.018 3.965c7.025-2.893 11.622-9.755 11.622-17.637 0-10.514-8.538-19.067-19.032-19.067-2.29 0-4.527.402-6.652 1.197a.617.617 0 0 1-.43-1.156 20.151 20.151 0 0 1 7.082-1.275 20.112 20.112 0 0 1 14.329 5.946zm-20.045 7.154c0 2.995 2.432 5.433 5.423 5.433 2.99 0 5.423-2.438 5.423-5.433 0-2.996-2.433-5.433-5.423-5.433s-5.423 2.437-5.423 5.433zm3.292 6.314a6.63 6.63 0 0 1-1.775-.921l-3.08 15.72a3.492 3.492 0 0 0 1.262 3.426l2.274-11.532v-.003zm.76 7.433h-.969l-.227 1.15h1.195zm2.036-1.508h-.805v4.156h.805zm.616-1.235c.34 0 .616.277.617.618v.89h.724l-1.184-6.004a6.663 6.663 0 0 1-2.369.092l-1.166 5.913h.725v-.891c0-.341.276-.618.616-.618zm1.813 3.904l-.229-1.162-.022.001h-.946v1.16zm11.132-.021v-1.14h-6.922l.226 1.14z"/></defs><g><g transform="translate(-393 -2849)"><use xlink:href="#vp7ha"/></g></g></svg>