<svg xmlns="http://www.w3.org/2000/svg" xmlns:xlink="http://www.w3.org/1999/xlink" width="33" height="40" viewBox="0 0 33 40"><defs><path id="73jpa" d="M647.758 1387.244a.84.84 0 0 1 .242.589v23.333c0 1.379-1.11 2.5-2.475 2.5s-2.475-1.121-2.475-2.5v-1.666a.83.83 0 0 0-.825-.834h-.825v6.666c1.82 0 3.3 1.495 3.3 3.334v2.5c0 .46-.37.834-.825.834h-28.05a.829.829 0 0 1-.825-.834v-2.5c0-1.839 1.48-3.334 3.3-3.334v-30c0-1.838 1.48-3.332 3.3-3.332h16.5c1.82 0 3.3 1.494 3.3 3.333v21.666h.825c1.364 0 2.475 1.122 2.475 2.5v1.667c0 .46.37.833.825.833a.83.83 0 0 0 .825-.833V1397c-1.82 0-3.3-1.495-3.3-3.334v-2.5c0-.221.087-.432.241-.589l2.717-2.744-2.717-2.744a.84.84 0 0 1 0-1.179.819.819 0 0 1 1.167 0zm-27.808 28.088h19.8v-30a1.66 1.66 0 0 0-1.65-1.666h-16.5c-.91 0-1.65.748-1.65 1.667zm23.1 3.334c0-.919-.74-1.667-1.65-1.667h-23.1c-.91 0-1.65.748-1.65 1.667v1.666h26.4zm3.3-28.822l-1.65 1.667v2.156c0 .918.74 1.666 1.65 1.666zm-9.075-4.511c.456 0 .825.372.825.833v10.016c0 .46-.37.833-.825.833h-14.85a.83.83 0 0 1-.825-.833v-10.016a.83.83 0 0 1 .825-.833zm-.825 1.667h-13.2v8.348h13.2z"/></defs><g><g transform="translate(-615 -1382)"><use fill="#05050a" xlink:href="#73jpa"/></g></g></svg>