<svg xmlns="http://www.w3.org/2000/svg" xmlns:xlink="http://www.w3.org/1999/xlink" width="40" height="40" viewBox="0 0 40 40"><defs><path id="re6ca" d="M627.264 2869.476c.753.268 1.293.99 1.294 1.838v16.25a1.948 1.948 0 0 1-1.941 1.95h-34.948a1.948 1.948 0 0 1-1.941-1.95v-16.25c0-.849.54-1.57 1.294-1.838v-14.413a1.948 1.948 0 0 1 1.942-1.95h.647v-.65a1.948 1.948 0 0 1 1.941-1.95h1.295a1.948 1.948 0 0 1 1.941 1.95v.65h6.472v-.65a1.948 1.948 0 0 1 1.941-1.95h3.884a1.949 1.949 0 0 1 1.941 1.95v.65h6.472v-.65a1.948 1.948 0 0 1 1.941-1.95h1.295a1.948 1.948 0 0 1 1.941 1.95v.65h.647a1.948 1.948 0 0 1 1.942 1.95zm-6.472-16.363h2.589v-.65a.65.65 0 0 0-.647-.65h-1.295a.65.65 0 0 0-.647.65zm-14.238 0h5.178v-.65a.65.65 0 0 0-.647-.65H607.2a.65.65 0 0 0-.647.65zm-11.649 0h2.589v-.65a.65.65 0 0 0-.647-.65h-1.295a.65.65 0 0 0-.647.65zm-2.589 16.25h1.295v-13a.647.647 0 0 1 .647-.65h29.77a.647.647 0 0 1 .647.65v13h1.295v-14.3a.65.65 0 0 0-.648-.65h-32.358a.65.65 0 0 0-.648.65zm12.643 0l-3.878-6.233a1.969 1.969 0 0 0-2.676-.618 1.956 1.956 0 0 0-.615 2.685l2.593 4.167h1.527l-2.214-3.556a.653.653 0 0 1-.025-.65.646.646 0 0 1 1.122-.039l2.644 4.245zm1.596 1.3v5.2c0 .36.29.65.646.65h3.884a.649.649 0 0 0 .647-.65v-5.2zm6.642-1.3l2.685-3.198a.645.645 0 0 1 .787-.222 3.28 3.28 0 0 0 2.607.007 3.302 3.302 0 0 0 1.795-1.898l-1.48.855c-.85.49-1.934.196-2.423-.658l-.65-1.133a1.797 1.797 0 0 1 .65-2.432l1.669-.96a3.277 3.277 0 0 0-3.177.853 3.311 3.311 0 0 0-.855 3.174c.06.203.02.43-.126.604l-4.202 5.009zm1.693 0h8.49v-12.35h-28.475v12.35h3.951l-2.163-3.477a3.262 3.262 0 0 1-.118-3.25 3.233 3.233 0 0 1 2.744-1.724 3.232 3.232 0 0 1 2.858 1.527l4.309 6.925h2.298l4.697-5.598a4.607 4.607 0 0 1 1.866-4.617 4.56 4.56 0 0 1 5.25-.008.65.65 0 0 1-.05 1.096l-2.731 1.572a.49.49 0 0 0-.176.66l.65 1.133a.482.482 0 0 0 .657.177l2.642-1.527a.644.644 0 0 1 .638-.005.65.65 0 0 1 .332.546 4.62 4.62 0 0 1-1.291 3.33 4.574 4.574 0 0 1-3.273 1.402c-.47-.001-.935-.074-1.381-.216zm-17.396 5.85h-2.589v1.3h2.589zm-2.589 5.201c0 .359.29.65.647.65h1.295a.65.65 0 0 0 .647-.65v-2.6h-2.589zm2.589-9.75h-2.589v3.25h2.589zm23.298 5.85h2.589v-1.3h-2.589zm0-5.85v3.25h2.589v-3.25zm0 9.75c0 .359.29.65.647.65h1.295a.65.65 0 0 0 .647-.65v-2.6h-2.589zm6.472-9.1a.65.65 0 0 0-.647-.65h-1.942v9.75a1.948 1.948 0 0 1-1.941 1.95h-1.295a1.948 1.948 0 0 1-1.941-1.95v-9.75h-6.472v5.2a1.948 1.948 0 0 1-1.941 1.95H607.2a1.948 1.948 0 0 1-1.941-1.95v-5.2h-6.472v9.75a1.948 1.948 0 0 1-1.941 1.95h-1.295a1.948 1.948 0 0 1-1.941-1.95v-9.75h-1.942a.649.649 0 0 0-.647.65v16.25c0 .36.29.65.647.65h34.948c.357 0 .646-.29.647-.65z"/></defs><g><g transform="translate(-589 -2850)"><use xlink:href="#re6ca"/></g></g></svg>