<svg xmlns="http://www.w3.org/2000/svg" xmlns:xlink="http://www.w3.org/1999/xlink" width="35" height="27" viewBox="0 0 35 27"><defs><path id="642za" d="M589.258 307.142v17.794c0 2.325-1.878 4.215-4.189 4.215h-25.88c-2.31 0-4.19-1.89-4.19-4.215v-17.8c0-2.326 1.88-4.216 4.19-4.216h25.887c2.311 0 4.19 1.897 4.182 4.222zm-1.913 17.794v-17.794c0-1.262-1.021-2.289-2.276-2.289h-25.88a2.285 2.285 0 0 0-2.275 2.29v17.793c0 1.262 1.02 2.29 2.275 2.29h25.887a2.285 2.285 0 0 0 2.276-2.29zm-2.325-1.084a.97.97 0 0 1 .035 1.362.953.953 0 0 1-1.354.036l-8.52-8.145-2.389 2.154a.948.948 0 0 1-1.276.007l-2.325-2.09-8.57 8.067a.956.956 0 0 1-1.354-.05.97.97 0 0 1 .043-1.362l8.442-7.952-8.478-7.624a.966.966 0 0 1-.078-1.362.952.952 0 0 1 1.354-.079l9.173 8.259c.056.043.106.085.156.135 0 .007.007.015.014.022l2.254 2.025 11.554-10.434a.958.958 0 0 1 1.354.072.972.972 0 0 1-.07 1.362l-8.38 7.56z"/></defs><g><g transform="translate(-555 -303)"><use fill="#05050a" xlink:href="#642za"/></g></g></svg>