<svg xmlns="http://www.w3.org/2000/svg" xmlns:xlink="http://www.w3.org/1999/xlink" width="28" height="34" viewBox="0 0 28 34"><defs><path id="ggu2a" d="M1026.004 312.628a14.06 14.06 0 0 1-.334 3.016 13.302 13.302 0 0 1-.909 2.687c-1.463 3.457-4.687 8.767-11.74 14.455a.962.962 0 0 1-1.206 0c-7.06-5.688-10.277-10.998-11.74-14.455a13.453 13.453 0 0 1-1-3.144 13.46 13.46 0 0 1-.242-2.559c0-7.512 6.093-13.628 13.578-13.628 7.485 0 13.579 6.116 13.593 13.628zm-1.932-.007c0-6.45-5.234-11.704-11.66-11.704-6.428 0-11.662 5.254-11.662 11.704 0 .749.071 1.49.213 2.224 0 .022.007.036.007.05.007.036.022.143.064.307v.014c.185.798.448 1.582.788 2.324.008.007.008.02.015.028 1.328 3.158 4.24 7.976 10.574 13.23 6.335-5.254 9.247-10.072 10.575-13.23.007-.007.007-.021.014-.028.348-.749.61-1.526.788-2.324v-.014c.036-.164.057-.271.064-.307 0-.014.007-.028.007-.043a11.64 11.64 0 0 0 .213-2.23zm-3.04.157c0 4.769-3.87 8.653-8.62 8.653-4.752 0-8.622-3.884-8.622-8.653 0-4.768 3.87-8.653 8.621-8.653s8.622 3.885 8.622 8.653zm-1.917 0c0-3.706-3.011-6.729-6.704-6.729-3.693 0-6.704 3.023-6.704 6.73 0 3.706 3.004 6.728 6.704 6.728 3.7 0 6.704-3.022 6.704-6.729z"/></defs><g><g transform="translate(-998 -299)"><use fill="#05050a" xlink:href="#ggu2a"/></g></g></svg>