<svg xmlns="http://www.w3.org/2000/svg" xmlns:xlink="http://www.w3.org/1999/xlink" width="35" height="34" viewBox="0 0 35 34"><defs><path id="8vwya" d="M811.07 324.003c.717.713 1.093 1.561 1.093 2.445 0 .877-.369 1.732-1.07 2.467-.306.32-.618.627-.923.92-.446.434-.872.84-1.24 1.29-.008.014-.022.021-.029.036-1.078 1.176-2.454 1.768-4.092 1.768-.142 0-.298-.007-.446-.015-2.433-.156-4.61-1.076-6.24-1.853-4.27-2.075-8.007-5.02-11.113-8.748-2.56-3.094-4.276-5.982-5.425-9.097-.468-1.27-1.078-3.208-.908-5.29a5.228 5.228 0 0 1 1.54-3.315l2.41-2.446.014-.014c.71-.684 1.546-1.048 2.412-1.048.865 0 1.687.364 2.375 1.048.461.428.908.884 1.333 1.326.213.228.44.457.66.677l1.936 1.947c1.489 1.497 1.489 3.436 0 4.933-.199.2-.397.407-.596.606-.525.535-1.064 1.091-1.645 1.626.432.962 1.028 1.91 1.915 3.037 1.83 2.26 3.737 4.007 5.836 5.347.205.128.447.25.702.378.177.093.362.185.546.285l2.24-2.246c.717-.72 1.554-1.098 2.426-1.098.88 0 1.709.385 2.397 1.105zm-1.36 1.347l-3.908-3.928-.014-.014c-.22-.243-.582-.52-1.021-.52-.447 0-.83.291-1.071.534l-2.425 2.438c-.12.121-.49.492-1.078.492a1.53 1.53 0 0 1-.702-.178c-.029-.015-.057-.036-.085-.05a8.985 8.985 0 0 0-.702-.378 9.64 9.64 0 0 1-.873-.478c-2.276-1.447-4.34-3.336-6.297-5.76l-.007-.007c-1.078-1.376-1.787-2.531-2.29-3.758l-.022-.064c-.127-.406-.24-1.005.37-1.618.006-.014.02-.021.035-.036a37.076 37.076 0 0 0 1.78-1.74c.205-.199.404-.406.61-.612.751-.756.751-1.455 0-2.21l-1.936-1.947c-.227-.235-.454-.463-.674-.691-.433-.45-.844-.87-1.277-1.277l-.02-.02c-.228-.23-.59-.5-1.036-.5-.362 0-.73.178-1.078.506l-2.418 2.431a3.28 3.28 0 0 0-.979 2.118c-.106 1.304.135 2.688.794 4.463 1.071 2.909 2.688 5.618 5.106 8.548 2.929 3.515 6.453 6.288 10.467 8.241 1.468.706 3.425 1.533 5.531 1.669.107.007.22.007.326.007 1.107 0 1.95-.364 2.667-1.134.44-.52.907-.984 1.368-1.426.305-.299.589-.57.866-.87-.008.008-.008 0 0 0 .723-.755.723-1.504-.008-2.23zm-11.701-19.278a.963.963 0 0 1 1.106-.784 10.918 10.918 0 0 1 5.921 3.087 11.017 11.017 0 0 1 3.07 5.953.963.963 0 0 1-.786 1.112c-.057.007-.107.015-.163.015a.953.953 0 0 1-.944-.799 9.105 9.105 0 0 0-2.538-4.92 8.976 8.976 0 0 0-4.893-2.552.952.952 0 0 1-.773-1.112zm15.395 9.076c-.057.007-.106.014-.163.014a.953.953 0 0 1-.943-.798 16.18 16.18 0 0 0-4.517-8.762c-2.397-2.403-5.411-3.978-8.716-4.542a.967.967 0 0 1-.787-1.112.954.954 0 0 1 1.1-.784c3.701.634 7.07 2.388 9.75 5.083a18.123 18.123 0 0 1 5.056 9.803.944.944 0 0 1-.78 1.098z"/></defs><g><g transform="translate(-780 -299)"><use fill="#05050a" xlink:href="#8vwya"/></g></g></svg>