<svg xmlns="http://www.w3.org/2000/svg" xmlns:xlink="http://www.w3.org/1999/xlink" width="39" height="39" viewBox="0 0 39 39"><defs><path id="4lhba" d="M471.408 1208.435c.212.644.13 1.295-.226 1.789-.355.492-.948.775-1.624.775h-7.397a5.86 5.86 0 0 1-5.573-4.035l-4.183-12.684-4.184 12.684a5.86 5.86 0 0 1-5.572 4.035h-7.397c-.677 0-1.269-.283-1.624-.775-.356-.494-.438-1.145-.225-1.789l11.336-34.371c.382-1.158 1.634-2.065 2.85-2.065h9.631c1.217 0 2.469.907 2.85 2.065zm-14.009-34.371c.05-.153.049-.283-.004-.357-.054-.073-.176-.116-.336-.116h-9.47c-.534 0-1.174.463-1.341.972l-11.337 34.372c-.05.152-.048.282.005.356.053.074.176.116.336.116h7.397a4.273 4.273 0 0 0 4.064-2.943zm12.495 35.227c.054-.074.055-.204.005-.356l-11.164-33.848-5.494 16.656 4.856 14.722a4.273 4.273 0 0 0 4.064 2.942h7.397c.16 0 .283-.042.336-.116zm-25.049-22.26a.796.796 0 0 1 .505 1.005l-2.56 7.763a.795.795 0 1 1-1.509-.499l2.561-7.764a.794.794 0 0 1 1.004-.506zm.971-2.945a.796.796 0 0 1 .505 1.006l-.118.358a.795.795 0 1 1-1.508-.5l.118-.357a.795.795 0 0 1 1.003-.507z"/></defs><g><g transform="translate(-433 -1172)"><use fill="#05050a" xlink:href="#4lhba"/></g></g></svg>