<svg xmlns="http://www.w3.org/2000/svg" xmlns:xlink="http://www.w3.org/1999/xlink" width="40" height="38" viewBox="0 0 40 38"><defs><path id="sv1ra" d="M406 1344.445h-6.406v18.76c0 1.542-1.227 2.795-2.735 2.795h-28.125c-1.508 0-2.734-1.253-2.734-2.794v-20.757c0-1.54 1.226-2.794 2.734-2.794h11.329V1328H406zm-21.082-14.05l8.113 5.655 8.114-5.655zm12.332 30.815h-28.906v1.996c0 .22.175.399.39.399h28.125c.216 0 .391-.179.391-.4zm0-16.765h-17.188v-2.395h-11.328a.395.395 0 0 0-.39.4v16.365h28.906zm6.406-2.395v-10.506l-10.625 7.405-10.625-7.405v10.506zm-31.797 4.79a1.185 1.185 0 0 1-1.172-1.197c0-.662.525-1.198 1.172-1.198.648 0 1.172.536 1.172 1.198 0 .661-.524 1.197-1.172 1.197zm-1.172 2.395h14.141v2.395h-14.14zm0 4.79h10.235v2.395h-10.235z"/></defs><g><g transform="translate(-366 -1328)"><use xlink:href="#sv1ra"/></g></g></svg>