<svg xmlns="http://www.w3.org/2000/svg" xmlns:xlink="http://www.w3.org/1999/xlink" width="41" height="26" viewBox="0 0 41 26"><defs><path id="4nbta" d="M620 1346.564c0 .666-.54 1.206-1.206 1.206h-15.117l15.58 6.552c.436.182.743.612.743 1.113v7.36c0 .665-.54 1.205-1.206 1.205h-38.588c-.666 0-1.206-.54-1.206-1.205v-7.36c0-.665.54-1.205 1.206-1.205h15.117l-15.58-6.553a1.205 1.205 0 0 1-.743-1.113v-7.359c0-.665.54-1.205 1.206-1.205h38.588c.666 0 1.206.54 1.206 1.205zm-2.412 15.026v-4.95h-2.412v2.25a1.206 1.206 0 0 1-2.412 0v-2.25h-2.423v1.045a1.205 1.205 0 0 1-2.411 0v-1.045h-2.423v2.25a1.206 1.206 0 0 1-2.412 0v-2.25h-2.423v1.045a1.205 1.205 0 0 1-2.412 0v-1.045h-2.422v2.25a1.206 1.206 0 0 1-2.412 0v-2.25h-2.423v1.045a1.206 1.206 0 0 1-2.412 0v-1.045h-2.423v2.25a1.206 1.206 0 0 1-2.412 0v-2.25h-2.344v4.95zm-4.768-7.36l-15.36-6.46h-11.28l15.36 6.46zm4.768-8.87v-4.95h-2.412v2.25a1.205 1.205 0 0 1-2.412 0v-2.25h-2.423v1.045a1.205 1.205 0 0 1-2.411 0v-1.045h-2.423v2.25a1.205 1.205 0 0 1-2.412 0v-2.25h-2.423v1.045a1.205 1.205 0 0 1-2.412 0v-1.045h-2.422v2.25a1.206 1.206 0 0 1-2.412 0v-2.25h-2.423v1.045a1.205 1.205 0 0 1-2.412 0v-1.045h-2.423v2.25a1.205 1.205 0 0 1-2.412 0v-2.25h-2.344v4.95z"/></defs><g><g transform="translate(-579 -1338)"><use xlink:href="#4nbta"/></g></g></svg>