<svg xmlns="http://www.w3.org/2000/svg" xmlns:xlink="http://www.w3.org/1999/xlink" width="40" height="40" viewBox="0 0 40 40"><defs><path id="tefsa" d="M819.967 1339.588a3.513 3.513 0 0 1 0 4.972l-8.497 8.505v10.42a3.52 3.52 0 0 1-3.516 3.515h-23.438a3.52 3.52 0 0 1-3.516-3.516v-32.969a3.52 3.52 0 0 1 3.516-3.515h20.123c.94 0 1.822.365 2.486 1.03l3.315 3.314a3.493 3.493 0 0 1 1.03 2.486v9.287c.41-.412 3.103-3.107 3.525-3.529a3.52 3.52 0 0 1 4.972 0zm-15.529-5.557h4.688c0-.25.028-.658-.344-1.03l-3.314-3.314c-.382-.382-.809-.343-1.03-.343zm4.688 21.378l-.142.142a1.164 1.164 0 0 1-.459.283l-4.972 1.658a1.172 1.172 0 0 1-1.482-1.483l1.657-4.972c.058-.172.155-.329.284-.458l1.656-1.656 3.458-3.46v-9.088h-5.86a1.172 1.172 0 0 1-1.172-1.172v-5.86h-17.578c-.647 0-1.172.526-1.172 1.172v32.97c0 .645.525 1.171 1.172 1.171h23.438c.646 0 1.172-.526 1.172-1.172zm-3.262-3.368l-.828 2.486 2.486-.829.633-.633-1.658-1.657zm9.581-6.271l-1.657-1.657-5.634 5.638 1.658 1.657zm2.865-2.867a1.171 1.171 0 1 0-1.657-1.658l-1.208 1.21 1.657 1.657zm-15.044-4.184a1.172 1.172 0 0 1 0 2.343H786.86a1.172 1.172 0 1 1 0-2.343zm-4.687 4.687a1.172 1.172 0 1 1 0 2.344h-11.72a1.172 1.172 0 1 1 0-2.344zm0 4.688a1.172 1.172 0 1 1 0 2.343h-11.72a1.172 1.172 0 1 1 0-2.343zm0 4.687a1.172 1.172 0 1 1 0 2.344h-11.72a1.172 1.172 0 1 1 0-2.344zm4.687 7.188a1.172 1.172 0 0 1 0 2.343h-7.031a1.172 1.172 0 0 1 0-2.343z"/></defs><g><g transform="translate(-781 -1327)"><use xlink:href="#tefsa"/></g></g></svg>