<svg xmlns="http://www.w3.org/2000/svg" xmlns:xlink="http://www.w3.org/1999/xlink" width="47" height="39" viewBox="0 0 47 39"><defs><path id="14t8a" d="M1039.91 1367.657c.115.283.115.6 0 .883a1.142 1.142 0 0 1-.612.624l-4.256 1.797c-.142.06-.289.088-.433.088-.445 0-.866-.268-1.047-.712a1.161 1.161 0 0 1 .613-1.507l1.73-.73-4.07-1.717-14.95 5.547s-.21.07-.386.07c-.176 0-.388-.07-.388-.07l-14.95-5.547-4.07 1.716 1.73.73c.578.245.852.92.612 1.508-.18.444-.602.712-1.046.712a1.11 1.11 0 0 1-.433-.088l-4.256-1.797a1.143 1.143 0 0 1-.613-.624 1.17 1.17 0 0 1 0-.883l1.765-4.335c.24-.588.901-.867 1.48-.623.577.244.851.918.612 1.507l-.718 1.763 3.826-1.613v-17.187c0-.484.298-.917.745-1.083l14.57-5.407v-3.776l-1.324 1.35c-.443.45-1.16.45-1.601 0a1.168 1.168 0 0 1 0-1.631l3.257-3.318a1.117 1.117 0 0 1 1.602 0l3.257 3.318c.443.45.443 1.18 0 1.63a1.118 1.118 0 0 1-1.6 0l-1.326-1.35v3.777l14.571 5.407c.448.165.745.599.745 1.083v17.187l3.826 1.613-.717-1.763a1.16 1.16 0 0 1 .611-1.507 1.126 1.126 0 0 1 1.48.623zm-24.544-7.166l-11.108 4.587 11.108 4.122zm0-6.18l-13.051-5.364v14.423l13.05-5.365zm0-11.177l-11.112 4.123 11.112 4.568zm2.264 8.69l11.112-4.567-11.112-4.123zm11.108 13.254l-11.108-4.587v8.709zm1.944-1.708v-14.423l-13.052 5.365v3.693l13.051 5.365z"/></defs><g><g transform="translate(-993 -1333)"><use xlink:href="#14t8a"/></g></g></svg>