<svg xmlns="http://www.w3.org/2000/svg" xmlns:xlink="http://www.w3.org/1999/xlink" width="36" height="37" viewBox="0 0 36 37"><defs><path id="4gbpa" d="M1245.456 1358.779c2.303 2.367 1.99 6.28-.67 8.25-.873.644-1.91.959-2.96.959a5.583 5.583 0 0 1-3.985-1.71c-3.009-3.093-2.84-2.915-2.89-2.979l-6.729-8.404-2.89 2.97c.948 2.734.294 5.83-1.734 7.914a7.291 7.291 0 0 1-5.227 2.22 7.19 7.19 0 0 1-3.174-.738c-.655-.322-.805-1.216-.29-1.744l2.727-2.804a1.104 1.104 0 0 0 0-1.533 1.036 1.036 0 0 0-1.491 0l-2.727 2.804a1.04 1.04 0 0 1-1.697-.3c-1.346-2.894-.766-6.365 1.442-8.635 2.027-2.084 5.04-2.757 7.698-1.782l3.384-3.478c-.015-.017-.03-.033-.043-.05-.576-.761.382.316-6.897-7.618l-.723.744a1.038 1.038 0 0 1-1.65-.21l-3.388-5.804a3.935 3.935 0 0 1 .565-4.715 3.673 3.673 0 0 1 4.587-.58l5.647 3.482c.587.362.688 1.197.203 1.696l-.767.788c7.317 7.976 6.291 6.915 7.068 7.536l3.816-3.922c-.947-2.733-.293-5.83 1.734-7.914 2.209-2.27 5.585-2.865 8.401-1.482.656.322.806 1.215.291 1.744l-2.727 2.804a1.105 1.105 0 0 0 0 1.533c.411.422 1.08.422 1.491 0l2.727-2.804a1.04 1.04 0 0 1 1.698.299c1.345 2.895.765 6.365-1.443 8.635-2.027 2.084-5.039 2.758-7.699 1.783l-3.308 3.4 8.528 6.474c.091.069-.12-.141 3.102 3.17zm-27.364-18.957c8.382 9.136 7.098 7.694 7.65 8.425l1.6-1.645c-.717-.573.606.805-7.802-8.358a1.105 1.105 0 0 1 .022-1.51l.536-.551-4.49-2.77a1.61 1.61 0 0 0-2.01.255c-.536.55-.637 1.4-.248 2.068l2.693 4.614.537-.55a1.035 1.035 0 0 1 1.512.022zm18.049 3.867c.316-.324.797-.409 1.2-.21a5.175 5.175 0 0 0 6-1.06 5.526 5.526 0 0 0 1.493-4.6l-1.492 1.534a3.106 3.106 0 0 1-4.473 0 3.277 3.277 0 0 1-.927-2.299c0-.869.33-1.685.927-2.299l1.491-1.534a5.197 5.197 0 0 0-4.473 1.534c-1.578 1.621-1.992 4.1-1.031 6.168.193.415.11.91-.206 1.234l-12.797 13.154c-.317.325-.797.41-1.2.212a5.175 5.175 0 0 0-6.001 1.06 5.526 5.526 0 0 0-1.492 4.598l1.492-1.534a3.106 3.106 0 0 1 4.473 0 3.314 3.314 0 0 1 0 4.599l-1.492 1.533a5.207 5.207 0 0 0 4.474-1.533c1.578-1.622 1.992-4.1 1.03-6.169a1.106 1.106 0 0 1 .207-1.233zm-6.425 9.67c.066.067-.069-.095 2.085 2.596l3.169-3.258-2.652-2.012zm13.837 11.91c1.663-1.231 1.75-3.583.412-4.958l-2.927-3.008-4.352-3.304-3.538 3.637 3.397 4.245 2.787 2.865c1.176 1.209 2.99 1.434 4.22.523zm-1.097-3.612c.411.423.411 1.11 0 1.533a1.034 1.034 0 0 1-1.491 0l-4.218-4.335a1.106 1.106 0 0 1 0-1.533 1.034 1.034 0 0 1 1.491 0z"/></defs><g><g transform="translate(-1211 -1331)"><use xlink:href="#4gbpa"/></g></g></svg>