<?xml version="1.0" encoding="utf-8"?>
<!-- Generator: Adobe Illustrator 21.0.2, SVG Export Plug-In . SVG Version: 6.00 Build 0)  -->
<svg version="1.1" id="Layer_1" xmlns="http://www.w3.org/2000/svg" xmlns:xlink="http://www.w3.org/1999/xlink" x="0px" y="0px"
	 viewBox="0 0 156 51" style="enable-background:new 0 0 156 51;" xml:space="preserve">
<style type="text/css">
	.st0{fill:#FFFFFF;}
</style>
<path class="st0" d="M108.2,32.8c0,1.6,0,3.2,0,4.8c1.3,0,2.5,0,3.9,0c0.9,0,1.7-0.2,2.3-0.7c0.6-0.4,0.9-1.1,0.9-1.8
	c0-0.9-0.3-1.4-0.7-1.8c-0.5-0.3-1.3-0.5-2.4-0.5C110.8,32.8,109.5,32.8,108.2,32.8L108.2,32.8z M147.2,49.5L147.2,49.5
	c-2.7,0-5.2,0-7.7,0c0-2.5,0-4.9,0-7.5c0-2.5,0-4.9,0-7.4c-1.4,2.5-2.9,4.9-4.3,7.4c-1.5,2.5-2.9,5-4.5,7.5c-3,0-6.1,0-9.2,0
	c1.4-2.3,2.9-4.7,4.3-7.1c-1.1-1.9-2.2-3.8-3.2-5.7c-0.1,0.6-0.3,1.1-0.5,1.6c-0.5,0.9-1.1,1.7-1.9,2.3c-0.9,0.7-1.9,1.1-3,1.5
	c-1.2,0.4-2.5,0.5-4.1,0.5c-1.7,0-3.4,0-5.1,0c0,2.3,0,4.5,0,6.8c-1.3,0-2.7,0-3.9,0c-1.3,0-2.5,0-3.8,0c-2,0-3.9,0-5.7,0
	c-2.1-2.9-4.1-5.9-6.3-8.8c-0.7,0.7-1.5,1.4-2.3,2.2c0,2.2,0,4.5,0,6.6c-2.5,0-5.1,0-7.7,0c0-3.7,0-7.4,0-11.1s0-7.4,0-11.1
	c2.5,0,5.1,0,7.7,0c0,2.3,0,4.7,0,7.1c2.5-2.3,5-4.7,7.5-7.1c2.3,0,4.5,0,6.8,0c0.9,0,1.9,0,2.9,0c3,0,6.1,0,9.2,0
	c1.6,0,2.9,0.1,3.9,0.3c0.5,0.1,0.9,0.2,1.4,0.4c-0.1-0.2-0.3-0.5-0.4-0.7c3,0,6.1,0,9.1,0c1.3,2.7,2.7,5.3,4.1,8.1
	c1.3-2.7,2.7-5.4,4.1-8.1c1.6,0,3.1,0,4.7,0c1.4,0,2.9,0,4.3,0c4.1,0,8.2,0,12.4,0c0,1.9,0,3.9,0,5.8c-3,0-6.1,0-9,0
	c0,2.7,0,5.5,0,8.1C147.2,44,147.2,46.7,147.2,49.5L147.2,49.5z M100.5,44.7L100.5,44.7c0-2.5,0-4.9,0-7.4c0-2.5,0-4.9,0-7.4
	C98.2,32,96,34,93.7,36C96,38.9,98.2,41.8,100.5,44.7L100.5,44.7z"/>
<path class="st0" d="M102.6,24.9c0,0.2,0,0.3,0,0.4c-8.6,0-17.2,0-25.8,0c0-4.3,0-8.5,0-12.7c0-4.3,0-8.5,0-12.7
	c0.2-0.1,0.4-0.1,0.6-0.1c7,0,13.3,2.9,17.8,7.5C99.8,11.7,102.6,18,102.6,24.9L102.6,24.9z"/>
<path class="st0" d="M75.7,20.4c-0.3,0.5-1.3,1.1-3.2,1.8c-1.3,0.7-2.5,1.1-3.7,1.5c-1.1,0.3-2.2,0.5-3.2,0.5
	c-1.1,0-2.2-0.5-3.1-1.2c-0.2-0.5-0.3-0.9-0.2-1.5c0-0.2,0-0.4,0-0.7c0,0,0-0.1-0.1-0.2c-0.1,0-0.3,0.1-0.5,0.3
	c-0.3,0.2-0.5,0.3-0.6,0.3c-0.7,0.5-1.4,0.9-2.3,1.3c-0.5,0.2-1.1,0.4-1.4,0.5c-0.4,0.1-0.7,0.2-0.9,0.2c-0.5-0.1-0.7-0.2-1.1-0.4
	c0-0.1-0.1-0.1-0.2-0.2c-0.1-0.1-0.2-0.2-0.2-0.4c-0.2-0.2-0.3-0.5-0.2-0.7c0-0.5,0-1.1,0.1-1.5h-0.1c0,0,0,0,0-0.1
	c0,0,0-0.1,0.1-0.1c0-0.1,0-0.1,0-0.2c-0.4,0.1-0.9,0.2-1.1,0.4c-0.2,0-0.3,0.1-0.5,0.2c-0.2,0-0.4,0.1-0.6,0.1
	c-0.9,0.3-1.4,0.5-1.9,0.7c-0.1,0.2-0.3,0.3-0.5,0.4c-0.2,0.1-0.3,0.2-0.5,0.4c-0.2,0.1-0.3,0.3-0.3,0.3c-0.2,0.2-0.4,0.4-0.6,0.5
	c-0.3,0.2-0.7,0.6-1.2,0.9c-0.5,0.5-0.9,0.9-1.2,0.9c-0.2,0.4-0.7,0.5-1.7,0.5c-0.5,0-0.7,0-0.9-0.1c0-0.1-0.1-0.2-0.1-0.4
	c0.1-0.1,0.2-0.2,0.2-0.4c0.1-0.2,0.1-0.3,0.1-0.4c0-0.1,0-0.3,0.1-0.4c0.1-0.2,0.3-0.3,0.4-0.6c0.2-0.2,0.3-0.3,0.3-0.5
	c0.1-0.1,0.2-0.2,0.3-0.4c0-0.1,0.1-0.2,0.2-0.5c0.2-0.2,0.4-0.5,0.7-0.9c0.2-0.2,0.3-0.5,0.4-0.7c0-0.2,0-0.3,0.1-0.3
	c0-0.1,0-0.2,0.1-0.2c0.3-0.3,0.4-0.6,0.5-0.9c0-0.1,0-0.2-0.3-0.2c-0.4,0-0.7,0.1-1.1,0.4c-0.3,0.3-0.7,0.6-1.3,0.9
	c-0.5,0.3-0.9,0.7-1.4,0.9c-0.1,0.2-0.3,0.3-0.4,0.4c-0.1,0-0.2,0.1-0.2,0.1c-0.3,0.2-0.6,0.4-1.1,0.7c-1.1,0.5-1.9,0.7-2.5,0.7
	c-0.1,0-0.2,0-0.2-0.1c-0.1,0-0.2,0-0.3,0c-0.1,0-0.4,0-0.5,0.1c-0.5,0-0.9-0.2-1.3-0.5c-0.3-0.3-0.5-0.7-0.5-1.1
	c0.1-0.9,0-1.3,0-1.3c-0.2,0-0.4,0.1-0.7,0.3c-0.5,0.3-0.9,0.6-1.1,0.7c-0.1,0.1-0.1,0.1-0.2,0.1c-0.2,0-0.3,0.1-0.4,0.1
	c-0.9,0.7-1.8,1.2-2.3,1.4c-0.3,0.3-0.9,0.7-1.6,0.9c-0.7,0.4-1.4,0.5-1.8,0.5c-0.1,0-0.2,0.1-0.3,0.1c-0.1,0.1-0.2,0.1-0.3,0.1
	c0,0-0.1,0-0.2,0c-1.1,0-1.6-0.5-1.5-1.5c0.1-0.1,0.1-0.2,0.2-0.3c0-0.1,0.1-0.3,0.3-0.5c0.2-0.2,0.3-0.3,0.3-0.4
	c0-0.1,0-0.2-0.2-0.2c-1.3,0.7-2.5,1.1-3.3,1.1c-0.3,0-0.6-0.1-0.7-0.1c-0.3-0.1-0.5-0.2-0.7-0.3c-0.2-0.1-0.7-0.3-1.1-0.7
	c-0.2-0.2-0.4-0.4-0.5-0.7c-0.2-0.2-0.4-0.3-0.6-0.3c-0.2,0-0.5,0.2-0.7,0.4c-0.2,0.3-0.5,0.6-0.7,0.7C17,22,16.3,23,15.5,24
	c-1.1,1.5-2,2.5-2.3,3.2c-0.9,1.3-1.5,2.3-2,2.8c-0.2,0.4-0.4,0.7-0.5,0.9c-0.1,0.2-0.3,0.3-0.4,0.5c-0.1,0.1-0.2,0.2-0.3,0.3
	C10,31.8,9.8,32,9.6,32.1c0,0.1-0.1,0.2-0.2,0.3c-0.1,0.1-0.2,0.2-0.4,0.3c-0.1,0-0.3,0-0.4,0c-0.3,0-0.6-0.1-0.9-0.3
	c-0.3-0.2-0.4-0.4-0.3-0.7c0.4-1.3,0.9-2.8,1.5-4.5c0.7-1.7,1.5-3.5,2.5-5.6c0.1-0.1,0.1-0.2,0.2-0.4c0.1-0.1,0.1-0.3,0.2-0.4
	c0.2-0.5,0.4-0.9,0.5-1.2c-0.4,0.1-0.7,0.3-1.2,0.7c-0.4,0.3-0.7,0.5-0.9,0.5c-0.1-0.1-0.1-0.1,0-0.2v-0.1c0-0.1,0-0.2,0-0.3
	c0,0.1,0,0.2,0,0.2c-0.1,0.4-0.2,0.7-0.2,1.1C10,21.5,10,21.6,10,21.6c0,0.1,0,0.2,0,0.2c-0.1,0.4-0.2,0.7-0.3,0.7
	c0,0.1-0.1,0.1-0.3,0.1c-0.2,0.1-0.5,0.1-0.7,0.2c-0.3,0-0.6,0.1-0.7,0.1c0,0.2-0.2,0.3-0.6,0.3c-0.1,0-0.2-0.1-0.3-0.1
	c-0.2,0-0.3,0-0.4,0c-0.4-0.1-0.6-0.5-0.6-1.4c0-0.2,0-0.7,0-1.2c0.1-0.3,0.3-0.6,0.4-0.7c-0.1-0.1-0.2-0.4-0.3-0.9
	c0.2-0.4,0.5-0.7,0.7-1.1c0.1-0.2,0-0.4,0-0.6c0-0.6,0-1.1,0.1-1.3c0.1-0.4,0.3-0.7,0.4-0.9c0.5-1.1,0.9-2.3,1.4-3.5
	c0.9-2.1,1.3-3.2,1.5-3.4c0.1-0.3,0.2-0.6,0.3-0.9C10.8,6.9,11,6.5,11.3,6c0.3-0.6,0.5-1.1,0.6-1.5c0,0,0-0.1,0-0.2
	C12,4.2,11.8,4.1,11.6,4c-0.3,0-0.6-0.1-0.9-0.1c-0.2,0-0.6,0.1-1.2,0.2C9,4.2,8.4,4.2,8,4.2C6.2,4.4,4.6,4.6,3,4.9
	c-0.2,0-0.3,0-0.5,0C2.4,4.9,2.1,5,1.7,5C1.4,5,1.1,4.9,1,4.7C1.3,4.3,1.6,4,1.7,3.8c0.2-0.9,0.7-1.5,1.5-1.9C3.5,1.7,4,1.5,4.8,1.3
	c0.7-0.1,1.7-0.2,2.7-0.2c1.1-0.1,1.7-0.2,2.1-0.2c0.1,0,0.2,0,0.3,0C9.8,0.9,10,1,10.4,1c1.1-0.2,2.7-0.3,4.5-0.3
	c0.9,0,1.7,0,2.7,0.1c0.9,0,1.8,0,2.7,0c0.4,0,0.9,0.1,1.7,0.1c0.7,0.1,1.1,0.2,1.1,0.3c0,0.3,0.2,0.3,0.3,0.3s0.3,0,0.4,0
	c0.7,0,0.9,0.4,0.7,1.2c-0.1,0.2-0.2,0.4-0.4,0.6c0.2,0,0.2,0.2,0.2,0.5c-0.1,0.3-0.3,0.5-0.6,0.5c-0.9,0-2.3-0.3-4.5-0.4
	c-2.3-0.1-3.4,0.1-3.5,0.4c0.2,0.1,0.5,0.2,0.7,0.3c0.4,0.2,0.7,0.4,0.9,0.7c0.1,0.1,0.2,0.3,0.3,0.5c0.1,0.1,0.1,0.3,0.1,0.4
	c0,0.1-0.1,0.2-0.1,0.2c0,0.2-0.1,0.4-0.1,0.5c-0.1,0.4-0.2,0.5-0.2,0.6c0,0-0.1,0.1-0.3,0.4c-0.2,0.3-0.3,0.5-0.4,0.5
	c-0.1,0.2-0.2,0.5-0.4,0.7c-0.7,1.2-1.7,2.7-2.5,4.3c-0.9,1.6-1.9,3.3-2.9,5.2c0,0.2-0.1,0.3-0.1,0.4c-0.1,0.2-0.2,0.4-0.2,0.6
	c0,0.2,0,0.4,0,0.7c0-0.2,0.1-0.4,0.2-0.7c0.4-0.2,0.7-0.5,1.1-0.7c0.7-0.3,0.9-0.6,1.1-0.7c0.1-0.3,0.5-0.7,0.9-1.1
	c0.3-0.2,0.5-0.4,0.7-0.7c0.7-0.6,1.3-1.2,2-1.9c0.4-0.4,0.9-0.7,1.2-1.2c0.1-0.1,0.2-0.2,0.3-0.3c0.9-0.9,1.4-1.5,1.7-1.9
	c0.2-0.2,0.5-0.4,0.7-0.5c0.3-0.2,0.5-0.4,0.7-0.4h0.1c0.2,0,0.3,0.2,0.4,0.4c0.1,0.2,0.1,0.6,0,0.9c-0.1,0.5-0.4,0.9-0.7,1.3
	c-0.4,0.3-0.7,0.6-0.7,0.7c0,0.2-0.1,0.3-0.2,0.4c0,0.1-0.1,0.2-0.2,0.3c0,0.1-0.4,0.6-0.9,1.4c-0.3,0.4-1.1,1.5-2.3,3.4
	c-1.3,1.8-2.2,3.4-2.9,4.5c-0.4,0.7-0.9,1.5-1.3,2.3c-0.3,0.4-0.5,0.7-0.7,1.1c-0.1,0.4-0.3,0.7-0.3,0.9c0.2,0,0.6-0.4,0.9-1.2
	c0.5-0.7,0.7-1.3,1.1-1.6c0.6-1.2,1.3-2.3,2.3-3.6c0.9-1.1,2.1-2.3,3.3-3.6c0.7-0.7,1.2-1.1,1.9-1.1s1.1,0.2,1.1,0.4
	c0.2,0.4,0.5,0.7,0.7,1.1c0.3,0.6,0.6,1.1,0.9,1.3c0.3,0.3,0.7,0.6,1.1,0.7c0.4,0,0.7-0.2,1.3-0.5c0.5-0.3,0.7-0.4,0.7-0.4v0.1
	c0.5-0.7,1.6-1.3,3-2c0.6-0.5,1.5-1.1,2.9-1.9c0.7-0.4,2.1-1.2,4-2.2c1.4-0.7,2.3-1.1,3-1.3c0.4-0.1,0.7-0.2,1.1-0.2
	c0.1,0,0.3,0,0.3,0c0.4,0.1,0.7,0.3,0.9,0.7v0.1c0,0.2-0.2,0.4-0.5,0.7c-0.4,0.4-0.9,0.6-1.5,0.7c-0.5,0.4-1.1,0.9-2.2,1.4
	c-0.3,0.1-0.6,0.3-1.1,0.7c-0.5,0.3-0.7,0.5-1.1,0.6c-0.2,0.3-0.5,0.5-0.7,0.7c-0.2,0.1-0.5,0.2-0.6,0.3c-0.1,0-0.2,0.1-0.3,0.1
	c-0.1,0-0.1,0-0.2,0.1c-0.4,0.4-0.9,0.7-1.7,1.2c-0.7,0.5-1.1,0.7-1.1,0.7c-0.3,0.3-0.5,0.5-0.7,0.7c0,0.1,0,0.1,0,0.1
	c0.5-0.1,0.9-0.2,1.4-0.5c0.2-0.1,0.4-0.2,0.7-0.4c0.3-0.2,0.7-0.5,1.1-0.7c0.9-0.5,1.5-0.7,1.9-0.9c0.5-0.5,1.1-0.9,1.8-1.2
	c0.7-0.3,1.4-0.5,2.1-0.5c0.2,0,0.4,0.1,0.4,0.3c0.1,0,0.1,0.1,0.1,0.2c0,0.1,0.1,0.2,0.1,0.4c0,0.2,0,0.4,0,0.6
	c-0.2,0.3-0.4,0.6-0.5,0.9c-0.1,0.4,0,0.7,0.2,0.9c0.2,0.2,0.6,0.4,0.9,0.5c0.7-0.1,1.2-0.4,2-0.7c0.1-0.3,0.3-0.5,0.6-0.7
	c0.3-0.2,0.5-0.6,0.9-0.9c0.4-0.3,0.7-0.6,1.2-0.9c0.4-0.2,0.7-0.5,1.1-0.7c0.3-0.2,0.7-0.5,1.1-0.7c0.4-0.2,0.7-0.5,1.2-0.7
	c0.4-0.3,0.7-0.5,0.9-0.7c0.5-0.2,1.1-0.4,1.7-0.4c0.9,0,1.3,0.5,1.1,1.6c-0.1,0.4-0.3,0.9-0.7,1.4c-0.2,0.3-0.4,0.5-0.6,0.9
	c-0.3,0.5-0.5,0.9-0.7,0.9c-0.1,0.2-0.2,0.4-0.3,0.6c-0.1,0.4-0.3,0.7-0.5,1.1c0.1,0,0.2-0.1,0.3-0.2c0.1,0,0.2-0.1,0.3-0.2
	c0.1-0.1,0.2-0.2,0.3-0.3c0.2-0.2,0.4-0.4,0.5-0.5c0.2,0,0.5-0.1,0.7-0.2c0.1,0,0.3,0,0.4,0c0.9-0.3,1.9-0.5,2.7-0.7
	c0.3-0.1,0.6-0.3,0.9-0.5c0.2-0.2,0.5-0.6,0.7-1.1c0.3-0.4,0.5-0.7,0.7-0.9c0.2-0.2,0.4-0.4,0.6-0.6c0.3-0.3,0.7-0.5,1.1-0.5
	c0.7-0.1,1.1,0,1.2,0.2c0,0.1,0,0.2,0,0.3c0,0.1-0.2,0.3-0.5,0.7c-0.2,0.2-0.3,0.6-0.4,0.9c-0.3,0.3-0.4,0.5-0.5,0.9
	c-0.2,0.3-0.4,0.7-0.6,1.3c-0.1,0.4-0.1,0.7,0,1.1c0,0.2,0.2,0.4,0.7,0.5c0.1,0.1,0.3,0.1,0.5,0.1c0.5,0,1.1-0.2,1.5-0.5
	c0.7-0.6,1.1-0.7,1.1-0.7c0.1,0,0.1-0.1,0.1-0.1c0.1,0,0.3-0.1,0.5-0.3c0.3-0.2,0.7-0.4,1.1-0.5c0.5-0.3,0.9-0.5,1.2-0.6
	c0.1-0.3,0.9-0.9,2.7-1.7c1.6-0.7,2.9-1.4,4.1-1.9c0.4-0.1,0.7-0.3,1.1-0.5c0.2-0.1,0.5-0.2,0.7-0.3c0.3-0.1,0.6-0.2,0.9-0.3
	c0.4-0.1,0.7-0.1,1.1-0.1c0.3,0,0.5,0,0.6,0c0,0.2,0.1,0.4,0.1,0.6c0,0.3,0,0.5,0,0.7c-0.2,0.6-1.5,1.3-3.9,2.2
	c-0.3,0.3-0.9,0.7-2.2,1.2c-1.1,0.5-1.9,0.9-2.3,1.1s-0.7,0.7-0.9,1.3c0,0.1-0.1,0.3-0.3,0.5c0.1,0.2,0.1,0.3,0.1,0.5
	c0,0.1,0.1,0.3,0.1,0.4c0.1,0.1,0.2,0.2,0.5,0.3c0.6,0.1,1.2,0.2,1.8,0.2c0.2,0,0.5-0.1,0.7-0.1c0.4-0.1,0.7-0.2,0.9-0.2
	c0.5-0.2,1.4-0.6,2.7-1.1c1.4-0.7,2.2-1.1,2.3-1.5c0-0.1,0.1-0.1,0.2-0.1c0.1,0,0.3,0,0.4,0.2c0.1,0.1,0.1,0.2,0.1,0.3
	c0,0.2,0,0.3,0,0.5C75.7,20.2,75.7,20.3,75.7,20.4C75.7,20.4,75.7,20.4,75.7,20.4L75.7,20.4z"/>
<path class="st0" d="M51,25.6c0-0.1,0-0.3,0.1-0.4c8.6,0,17.1,0,25.7,0c0,4.3,0,8.5,0,12.7c0,4.3,0,8.6,0,12.8c-0.1,0-0.3,0-0.5,0
	c-7,0-13.3-2.9-17.8-7.5C53.8,38.9,51,32.6,51,25.6L51,25.6z"/>
</svg>
